<svg width="14" height="14" viewBox="0 0 14 14" fill="none" xmlns="http://www.w3.org/2000/svg">
<mask id="path-1-inside-1_385_98" fill="white">
<path d="M1.75 8.03017L2.18575 8.0675C2.17571 8.17956 2.12289 8.28343 2.03826 8.35756C1.95363 8.43168 1.84371 8.47036 1.73131 8.46555C1.61891 8.46075 1.51269 8.41283 1.4347 8.33175C1.3567 8.25067 1.31294 8.14267 1.3125 8.03017H1.75ZM11.8043 6.96675L11.3925 4.58675L12.2553 4.43742L12.6665 6.81742L11.8043 6.96675ZM11.8728 7.42584L11.7938 7.9179L5.01433 0.729172H7.72625L11.8728 7.42584ZM11.6054 7.81957L4.74658 9.07784L3.13717 7.49642L3.61142 2.01717L7.2555 4.81213L11.6054 7.81957ZM11.3925 4.58675C11.0968 2.87759 13.7022 7.42584 11.8728 7.42584L7.72625 0.729172C9.95808 0.729172 11.8831 2.28609 12.2553 4.43742L11.3925 4.58675ZM7.73208 11.025L4.8895 8.91217L8.20867 8.52425L8.59542 10.8833L7.73208 11.025ZM4.193 8.02317L5.03242 8.7465L4.46075 9.40975L3.62133 8.68642L4.193 8.02317ZM7.777 12.5L6.83667 12.1695L5.98967 12.3888L5.712 11.3196L7.777 12.5ZM7.5 12L7.34008 12.3521L7.60783 13.1851L7.52325 13.2125L7.5 12ZM7.86865 11.0026C8.05065 11.3432 7.68017 12.1261 7.777 12.5L5.712 11.3196C5.63162 11.0126 5.51573 10.716 5.36667 10.4358L7.86865 11.0026ZM7.34008 12.3521C7.42319 12.3266 7.49857 12.2807 7.55931 12.2185C7.62006 12.1564 7.66422 12.0793 7.68775 11.9957L8.53475 12.2156C8.47472 12.4423 8.35823 12.6502 8.19614 12.8197C8.03405 12.9892 7.83165 13.1149 7.60783 13.1851L7.34008 12.3521ZM6.83667 12.1695C6.84811 12.2116 6.97177 11.9667 7 12C7.02823 12.0333 7.21583 10.3684 7.2555 10.3866L6.62025 13.1501C6.46605 13.0768 6.32973 12.9707 6.22081 12.8392C6.1119 12.7077 6.03301 12.554 5.98967 12.3888L6.83667 12.1695ZM7.2555 10.3866C7.3354 10.4245 7.41568 12.0267 7.5 12L7.52325 13.2125C7.22532 13.3077 6.90224 13.2854 6.62025 13.1501L7.2555 10.3866ZM8.2565 7.59267H11.2782V8.46767H8.2565V7.59267ZM2.75275 1.51317L2.18575 8.0675L1.31425 7.99225L1.88008 1.43792L2.75275 1.51317ZM2.1875 1.45076V8.03017H1.3125V1.45076H2.1875ZM1.88008 1.43792C1.8783 1.45912 1.88154 1.48046 1.88844 1.50058C1.89535 1.5207 1.90637 1.53916 1.9208 1.5548C1.93523 1.57043 1.95275 1.5829 1.97225 1.5914C1.99175 1.5999 2.01281 1.60425 2.03408 1.60417V0.729172C2.45758 0.729172 2.78892 1.09201 2.75275 1.51317L1.88008 1.43792ZM8.59542 10.8833C8.66833 11.3266 8.64792 11.7804 8.53475 12.2156L7.68775 11.9957C7.76942 11.6789 7.78517 11.3482 7.73208 11.025L8.59542 10.8833ZM11.7938 7.9179C11.6601 7.91814 4.75194 1.65475 4.65356 1.74525C9.5 5 11.6168 7.68639 11.6054 7.81957L7.2555 4.81213L3.61142 2.01717C3.64177 1.66591 3.80268 1.33878 4.06239 1.10034C4.32211 0.861903 4.66176 0.729468 5.01433 0.729172L11.7938 7.9179ZM5.03242 8.7465C5.42908 9.08834 7.58573 10.4735 7.86865 11.0026L5.36667 10.4358C5.16483 10.0573 4.84342 9.73875 4.46075 9.40975L5.03242 8.7465ZM12.6665 6.81742C12.7016 7.01985 12.6921 7.2275 12.6385 7.42584C12.5849 7.62418 12.4886 7.80841 12.3564 7.96562C12.2241 8.12284 12.0591 8.24923 11.8728 8.33596C11.6866 8.42268 11.4836 8.46763 11.2782 8.46767V7.59267C11.3561 7.59263 11.433 7.57556 11.5036 7.54266C11.5742 7.50975 8.94987 3.55963 9 3.5C9.05013 3.44037 11.7735 7.27267 11.7938 7.19746C11.8141 7.12224 11.8177 7.0435 11.8043 6.96675L12.6665 6.81742ZM2.03408 1.60417C2.07477 1.60417 2.11379 1.58801 2.14257 1.55924C2.17134 1.53047 2.1875 1.49144 2.1875 1.45076H1.3125C1.3125 1.05292 1.63508 0.729172 2.03408 0.729172V1.60417ZM4.8895 8.91217C4.86775 8.78 7.33086 8.39793 7.36663 8.26885C7.40241 8.13977 7.46585 8.02001 7.55253 7.9179C7.63922 7.81578 7.74709 7.73375 7.86865 7.67749C7.99021 7.62123 8.12255 7.59267 8.2565 7.59267V8.46767C8.22733 8.46767 8.204 8.49392 8.20867 8.52425L4.8895 8.91217ZM4.74658 9.07784C4.73947 9.16231 4.01455 7.74109 4.04659 7.81957C4.07863 7.89805 4.1288 7.96782 4.193 8.02317L3.62133 8.68642C3.45225 8.54051 3.3202 8.35656 3.23603 8.14969C3.15187 7.94282 3.11798 7.71893 3.13717 7.49642L4.74658 9.07784Z"/>
</mask>
<path d="M1.75 8.03017L2.18575 8.0675C2.17571 8.17956 2.12289 8.28343 2.03826 8.35756C1.95363 8.43168 1.84371 8.47036 1.73131 8.46555C1.61891 8.46075 1.51269 8.41283 1.4347 8.33175C1.3567 8.25067 1.31294 8.14267 1.3125 8.03017H1.75ZM11.8043 6.96675L11.3925 4.58675L12.2553 4.43742L12.6665 6.81742L11.8043 6.96675ZM11.8728 7.42584L11.7938 7.9179L5.01433 0.729172H7.72625L11.8728 7.42584ZM11.6054 7.81957L4.74658 9.07784L3.13717 7.49642L3.61142 2.01717L7.2555 4.81213L11.6054 7.81957ZM11.3925 4.58675C11.0968 2.87759 13.7022 7.42584 11.8728 7.42584L7.72625 0.729172C9.95808 0.729172 11.8831 2.28609 12.2553 4.43742L11.3925 4.58675ZM7.73208 11.025L4.8895 8.91217L8.20867 8.52425L8.59542 10.8833L7.73208 11.025ZM4.193 8.02317L5.03242 8.7465L4.46075 9.40975L3.62133 8.68642L4.193 8.02317ZM7.777 12.5L6.83667 12.1695L5.98967 12.3888L5.712 11.3196L7.777 12.5ZM7.5 12L7.34008 12.3521L7.60783 13.1851L7.52325 13.2125L7.5 12ZM7.86865 11.0026C8.05065 11.3432 7.68017 12.1261 7.777 12.5L5.712 11.3196C5.63162 11.0126 5.51573 10.716 5.36667 10.4358L7.86865 11.0026ZM7.34008 12.3521C7.42319 12.3266 7.49857 12.2807 7.55931 12.2185C7.62006 12.1564 7.66422 12.0793 7.68775 11.9957L8.53475 12.2156C8.47472 12.4423 8.35823 12.6502 8.19614 12.8197C8.03405 12.9892 7.83165 13.1149 7.60783 13.1851L7.34008 12.3521ZM6.83667 12.1695C6.84811 12.2116 6.97177 11.9667 7 12C7.02823 12.0333 7.21583 10.3684 7.2555 10.3866L6.62025 13.1501C6.46605 13.0768 6.32973 12.9707 6.22081 12.8392C6.1119 12.7077 6.03301 12.554 5.98967 12.3888L6.83667 12.1695ZM7.2555 10.3866C7.3354 10.4245 7.41568 12.0267 7.5 12L7.52325 13.2125C7.22532 13.3077 6.90224 13.2854 6.62025 13.1501L7.2555 10.3866ZM8.2565 7.59267H11.2782V8.46767H8.2565V7.59267ZM2.75275 1.51317L2.18575 8.0675L1.31425 7.99225L1.88008 1.43792L2.75275 1.51317ZM2.1875 1.45076V8.03017H1.3125V1.45076H2.1875ZM1.88008 1.43792C1.8783 1.45912 1.88154 1.48046 1.88844 1.50058C1.89535 1.5207 1.90637 1.53916 1.9208 1.5548C1.93523 1.57043 1.95275 1.5829 1.97225 1.5914C1.99175 1.5999 2.01281 1.60425 2.03408 1.60417V0.729172C2.45758 0.729172 2.78892 1.09201 2.75275 1.51317L1.88008 1.43792ZM8.59542 10.8833C8.66833 11.3266 8.64792 11.7804 8.53475 12.2156L7.68775 11.9957C7.76942 11.6789 7.78517 11.3482 7.73208 11.025L8.59542 10.8833ZM11.7938 7.9179C11.6601 7.91814 4.75194 1.65475 4.65356 1.74525C9.5 5 11.6168 7.68639 11.6054 7.81957L7.2555 4.81213L3.61142 2.01717C3.64177 1.66591 3.80268 1.33878 4.06239 1.10034C4.32211 0.861903 4.66176 0.729468 5.01433 0.729172L11.7938 7.9179ZM5.03242 8.7465C5.42908 9.08834 7.58573 10.4735 7.86865 11.0026L5.36667 10.4358C5.16483 10.0573 4.84342 9.73875 4.46075 9.40975L5.03242 8.7465ZM12.6665 6.81742C12.7016 7.01985 12.6921 7.2275 12.6385 7.42584C12.5849 7.62418 12.4886 7.80841 12.3564 7.96562C12.2241 8.12284 12.0591 8.24923 11.8728 8.33596C11.6866 8.42268 11.4836 8.46763 11.2782 8.46767V7.59267C11.3561 7.59263 11.433 7.57556 11.5036 7.54266C11.5742 7.50975 8.94987 3.55963 9 3.5C9.05013 3.44037 11.7735 7.27267 11.7938 7.19746C11.8141 7.12224 11.8177 7.0435 11.8043 6.96675L12.6665 6.81742ZM2.03408 1.60417C2.07477 1.60417 2.11379 1.58801 2.14257 1.55924C2.17134 1.53047 2.1875 1.49144 2.1875 1.45076H1.3125C1.3125 1.05292 1.63508 0.729172 2.03408 0.729172V1.60417ZM4.8895 8.91217C4.86775 8.78 7.33086 8.39793 7.36663 8.26885C7.40241 8.13977 7.46585 8.02001 7.55253 7.9179C7.63922 7.81578 7.74709 7.73375 7.86865 7.67749C7.99021 7.62123 8.12255 7.59267 8.2565 7.59267V8.46767C8.22733 8.46767 8.204 8.49392 8.20867 8.52425L4.8895 8.91217ZM4.74658 9.07784C4.73947 9.16231 4.01455 7.74109 4.04659 7.81957C4.07863 7.89805 4.1288 7.96782 4.193 8.02317L3.62133 8.68642C3.45225 8.54051 3.3202 8.35656 3.23603 8.14969C3.15187 7.94282 3.11798 7.71893 3.13717 7.49642L4.74658 9.07784Z" fill="#FF383C"/>
<path d="M11.3925 4.58675L11.2646 3.84774L11.5203 5.32578L11.3925 4.58675ZM3.61142 2.01717L3.67643 1.26999L1.1142 1.04704L3.15497 2.61228L3.61142 2.01717ZM4.74658 9.07784L4.22093 9.6128L4.79174 10.1737L5.31447 9.56774L4.74658 9.07784ZM8.59542 10.8833L8.71742 11.6233L8.4739 10.1432L8.59542 10.8833ZM8.20867 8.52425L8.32969 9.26443L8.12161 7.77933L8.20867 8.52425ZM3.62133 8.68642L3.05302 8.19701L4.18943 9.17608L3.62133 8.68642ZM5.03242 8.7465L5.60052 9.23616L4.46453 8.2566L5.03242 8.7465ZM5.712 11.3196L5.52305 10.5938L3.74209 11.0574L5.3398 11.9707L5.712 11.3196ZM7.5 12L8.24986 11.9856L6.7571 11.897L7.5 12ZM7.60783 13.1851L6.89381 13.4146L8.322 12.956L7.60783 13.1851ZM7.86865 11.0026L7.70296 11.7341L8.12592 10.2981L7.86865 11.0026ZM7.68775 11.9957L7.87623 11.2697L7.4988 12.7215L7.68775 11.9957ZM6.62025 13.1501L5.88931 12.9821L7.29561 13.4763L6.62025 13.1501ZM1.88008 1.43792L1.94402 0.690652L1.81565 2.18515L1.88008 1.43792ZM7.2555 4.81213L6.79906 5.40724L6.81375 5.41851L6.82898 5.42904L7.2555 4.81213ZM12.2354 6.89209L12.1074 6.15309L11.6763 6.22776L11.8043 6.96675L11.9323 7.70575L12.3634 7.63108L12.2354 6.89209ZM11.8242 4.51209L11.6963 3.77306L11.2647 3.84773L11.3925 4.58675L11.5203 5.32578L11.952 5.25111L11.8242 4.51209ZM4.04717 2.05509L4.11218 1.30791L3.67643 1.26999L3.61142 2.01717L3.5464 2.76435L3.98215 2.80227L4.04717 2.05509ZM3.5735 7.53434L2.97638 7.98816L4.14947 9.53166L4.74658 9.07784L5.3437 8.62402L4.17062 7.08052L3.5735 7.53434ZM8.16375 10.9544L8.28575 11.6944L8.71742 11.6233L8.59542 10.8833L8.47341 10.1432L8.04175 10.2144L8.16375 10.9544ZM7.777 8.59484L7.89803 9.33501L8.32969 9.26443L8.20867 8.52425L8.08764 7.78408L7.65597 7.85467L7.777 8.59484ZM3.90717 8.3545L3.33885 7.8651L3.05302 8.19701L3.62133 8.68642L4.18965 9.17583L4.47548 8.84391L3.90717 8.3545ZM4.74658 9.07784L5.31447 9.56774L5.6003 9.23641L5.03242 8.7465L4.46453 8.2566L4.1787 8.58794L4.74658 9.07784ZM6.1355 11.2093L5.94655 10.4835L5.52305 10.5938L5.712 11.3196L5.90095 12.0454L6.32445 11.9351L6.1355 11.2093ZM6.41317 12.2792L6.60118 13.0052L7.02468 12.8956L6.83667 12.1695L6.64865 11.4435L6.22515 11.5531L6.41317 12.2792ZM7.38967 12.796L8.13256 12.899L8.2429 12.103L7.5 12L6.7571 11.897L6.64677 12.693L7.38967 12.796ZM7.47425 12.7686L6.76008 12.9976L6.89367 13.4141L7.60783 13.1851L8.322 12.956L8.18842 12.5395L7.47425 12.7686ZM5.75283 10.2299L5.49556 10.9344L7.61138 11.7071L7.86865 11.0026L8.12592 10.2981L6.0101 9.52543L5.75283 10.2299ZM8.11125 12.1059L8.3002 11.3801L7.8767 11.2699L7.68775 11.9957L7.4988 12.7215L7.9223 12.8317L8.11125 12.1059ZM6.81042 12.7563L6.13506 12.4302L5.94489 12.8239L6.62025 13.1501L7.29561 13.4763L7.48578 13.0825L6.81042 12.7563ZM2.31642 1.47526L2.38035 0.727985L1.94402 0.690652L1.88008 1.43792L1.81615 2.18519L2.25248 2.22252L2.31642 1.47526ZM11.3925 4.58675L11.5204 5.32577L12.3832 5.17643L12.2552 4.43742L12.1273 3.69841L11.2646 3.84774L11.3925 4.58675ZM12.6665 6.81742L12.5385 6.07842L11.6763 6.22776L11.8043 6.96675L11.9323 7.70575L12.7945 7.55642L12.6665 6.81742ZM11.7938 7.9179L12.3394 7.40333L5.55997 0.2146L5.01433 0.729172L4.4687 1.24374L11.2482 8.43247L11.7938 7.9179ZM7.72625 0.729172L7.08859 1.12401L11.2352 7.82068L11.8728 7.42584L12.5105 7.03101L8.36391 0.334336L7.72625 0.729172ZM4.74658 9.07784L5.27224 8.54287L3.66282 6.96146L3.13717 7.49642L2.61151 8.03138L4.22093 9.6128L4.74658 9.07784ZM4.8895 8.91217L4.97656 9.6571L8.29573 9.26918L8.20867 8.52425L8.12161 7.77933L4.80244 8.16724L4.8895 8.91217ZM8.59542 10.8833L8.4739 10.1432L7.61057 10.2849L7.73208 11.025L7.8536 11.7651L8.71693 11.6233L8.59542 10.8833ZM5.03242 8.7465L4.46432 8.25685L3.89265 8.9201L4.46075 9.40975L5.02885 9.89941L5.60052 9.23616L5.03242 8.7465ZM3.62133 8.68642L4.18943 9.17608L4.7611 8.51283L4.193 8.02317L3.6249 7.53352L3.05323 8.19677L3.62133 8.68642ZM6.83667 12.1695L6.64865 11.4435L5.80165 11.6628L5.98967 12.3888L6.17768 13.1149L7.02468 12.8956L6.83667 12.1695ZM5.712 11.3196L5.3398 11.9707L7.4048 13.1511L7.777 12.5L8.1492 11.8489L6.0842 10.6685L5.712 11.3196ZM7.34008 12.3521L6.62606 12.5816L6.89381 13.4146L7.60783 13.1851L8.32186 12.9556L8.05411 12.1226L7.34008 12.3521ZM7.52325 13.2125L8.27311 13.1981L8.24986 11.9856L7.5 12L6.75014 12.0144L6.77339 13.2269L7.52325 13.2125ZM5.36667 10.4358L5.20098 11.1673L7.70296 11.7341L7.86865 11.0026L8.03434 10.2711L5.53236 9.70437L5.36667 10.4358ZM7.68775 11.9957L7.49927 12.7216L8.34627 12.9415L8.53475 12.2156L8.72323 11.4897L7.87623 11.2697L7.68775 11.9957ZM7.2555 10.3866L6.52456 10.2185L5.88931 12.9821L6.62025 13.1501L7.35119 13.3181L7.98644 10.5546L7.2555 10.3866ZM11.2782 7.59267H10.5282V8.46767H11.2782H12.0282V7.59267H11.2782ZM8.2565 8.46767H9.0065V7.59267H8.2565H7.5065V8.46767H8.2565ZM1.88008 1.43792L1.81565 2.18515L2.68832 2.2604L2.75275 1.51317L2.81718 0.765945L1.94452 0.690695L1.88008 1.43792ZM1.3125 1.45076V2.20076H2.1875V1.45076V0.700755H1.3125V1.45076ZM2.03408 1.60417H2.78408V0.729172H2.03408H1.28408V1.60417H2.03408ZM3.61142 2.01717L3.15497 2.61228L6.79906 5.40724L7.2555 4.81213L7.71194 4.21702L4.06786 1.42206L3.61142 2.01717ZM7.2555 4.81213L6.82898 5.42904L11.1789 8.43648L11.6054 7.81957L12.0319 7.20266L7.68202 4.19522L7.2555 4.81213ZM11.8043 6.96675L10.3263 7.22251L10.3265 7.22385L11.8043 6.96675ZM11.3925 4.58675L9.91446 4.84251V4.84251L11.3925 4.58675ZM3.61142 2.01717L5.10583 2.14652L5.10585 2.14631L3.61142 2.01717ZM4.74658 9.07784L4.47592 7.60246L3.34812 7.80936L3.25188 8.95193L4.74658 9.07784ZM8.59542 10.8833L7.11518 11.1259L7.1153 11.1267L8.59542 10.8833ZM8.20867 8.52425L6.72611 8.75234L6.72723 8.75964L6.72843 8.76694L8.20867 8.52425ZM3.62133 8.68642L2.64134 9.82203L2.64216 9.82274L3.62133 8.68642ZM5.03242 8.7465L6.01163 7.61022L6.01159 7.61019L5.03242 8.7465ZM5.712 11.3196L7.16385 10.9426L7.16309 10.9397L5.712 11.3196ZM6.83667 12.1695L7.33404 10.7544L4.64015 9.80755L5.3892 12.563L6.83667 12.1695ZM7.5 12L8.86573 12.6203L10.258 9.55504L7.04789 10.5698L7.5 12ZM7.60783 13.1851L7.15926 11.7537L7.15228 11.7559L7.14532 11.7582L7.60783 13.1851ZM7.86865 11.0026L9.19167 10.2958L9.19141 10.2953L7.86865 11.0026ZM7.68775 11.9957L9.13174 12.4018L9.13617 12.386L9.14025 12.3702L7.68775 11.9957ZM6.62025 13.1501L7.26923 11.7977L7.2644 11.7954L6.62025 13.1501ZM1.88008 1.43792L3.37483 1.56341L0.385642 1.30891L1.88008 1.43792ZM1.75 8.03017L1.87805 6.53565L1.81414 6.53017H1.75V8.03017ZM2.18575 8.0675L3.67977 8.20141L3.68017 8.19678L2.18575 8.0675ZM1.3125 8.03017H-0.187512L-0.187488 8.03607L1.3125 8.03017ZM12.2552 4.43742L13.7333 4.18202L13.7333 4.18173L12.2552 4.43742ZM12.6665 6.81742L11.1884 7.07283L11.1886 7.07384L12.6665 6.81742ZM11.8728 7.42584V5.92584H10.5945L10.3918 7.18804L11.8728 7.42584ZM11.7938 7.9179L11.7966 9.4179L13.0726 9.41557L13.2748 8.1557L11.7938 7.9179ZM5.01433 0.729172V-0.770829L5.01307 -0.770828L5.01433 0.729172ZM11.6054 7.81957L11.8761 9.29495L13.0024 9.08831L13.1 7.9473L11.6054 7.81957ZM3.13717 7.49642L1.64275 7.36707L1.64271 7.36757L3.13717 7.49642ZM7.73208 11.025L9.21225 10.7819L9.11389 10.1831L8.6269 9.82113L7.73208 11.025ZM4.8895 8.91217L3.4094 9.1557L3.50788 9.75421L3.99469 10.116L4.8895 8.91217ZM4.193 8.02317L3.21351 9.15922L3.21382 9.15949L4.193 8.02317ZM4.46075 9.40975L3.48157 10.5461L3.48285 10.5472L4.46075 9.40975ZM7.777 12.5L7.27963 13.9151L9.93462 14.8483L9.2291 12.124L7.777 12.5ZM5.98967 12.3888L4.53782 12.7659L4.5388 12.7696L5.98967 12.3888ZM7.34008 12.3521L5.97435 11.7318L4.59845 14.7611L7.77958 13.7863L7.34008 12.3521ZM7.52325 13.2125L7.97999 14.6413L7.98576 14.6394L7.52325 13.2125ZM5.36667 10.4358L6.6909 9.73127L6.69031 9.73017L5.36667 10.4358ZM8.53475 12.2156L9.98481 12.5995L9.98646 12.5931L8.53475 12.2156ZM7.2555 10.3866L7.89839 9.03133L7.88895 9.02685L7.87944 9.0225L7.2555 10.3866ZM8.2565 7.59267L8.2565 9.09267H8.2565V7.59267ZM11.2782 7.59267V9.09267H11.2789L11.2782 7.59267ZM11.2782 8.46767V9.96767H11.2784L11.2782 8.46767ZM2.75275 1.51317L4.24717 1.64245L4.24725 1.64151L2.75275 1.51317ZM1.31425 7.99225L-0.180191 7.86324L-0.309204 9.35766L1.18521 9.48669L1.31425 7.99225ZM2.1875 8.03017V9.53017H3.6875V8.03017H2.1875ZM2.03408 1.60417V0.104163L2.02883 0.104181L2.03408 1.60417ZM4.65356 1.74525L3.63806 0.641277L2.23754 1.92957L3.81729 2.99049L4.65356 1.74525ZM1.75 8.03017L1.62195 9.5247L2.0577 9.56203L2.18575 8.0675L2.3138 6.57298L1.87805 6.53565L1.75 8.03017ZM2.18575 8.0675L0.691738 7.9336C0.716127 7.66148 0.844405 7.40921 1.04993 7.2292L2.03826 8.35756L3.0266 9.48591C3.40137 9.15765 3.63529 8.69763 3.67976 8.20141L2.18575 8.0675ZM2.03826 8.35756L1.04993 7.2292C1.25545 7.04918 1.52242 6.95525 1.79538 6.96692L1.73131 8.46555L1.66724 9.96418C2.165 9.98546 2.65182 9.81418 3.0266 9.48591L2.03826 8.35756ZM1.73131 8.46555L1.79538 6.96692C2.06835 6.97859 2.32632 7.09496 2.51573 7.29186L1.4347 8.33175L0.353663 9.37164C0.699051 9.73069 1.16948 9.9429 1.66724 9.96418L1.73131 8.46555ZM1.4347 8.33175L2.51573 7.29186C2.70513 7.48876 2.81141 7.75106 2.81249 8.02427L1.3125 8.03017L-0.187488 8.03607C-0.185529 8.53428 0.00827384 9.01259 0.353663 9.37164L1.4347 8.33175ZM1.3125 8.03017V9.53017H1.75V8.03017V6.53017H1.3125V8.03017ZM11.8043 6.96675L13.2824 6.711L12.8705 4.331L11.3925 4.58675L9.91446 4.84251L10.3263 7.22251L11.8043 6.96675ZM12.2552 4.43742L10.7772 4.69283L11.1884 7.07283L12.6665 6.81742L14.1446 6.56202L13.7333 4.18202L12.2552 4.43742ZM11.8728 7.42584L10.3918 7.18804L10.3128 7.6801L11.7938 7.9179L13.2748 8.1557L13.3539 7.66364L11.8728 7.42584ZM5.01433 0.729172V2.22917H7.72625V0.729172V-0.770828H5.01433V0.729172ZM11.6054 7.81957L11.3347 6.34419L4.47592 7.60246L4.74658 9.07784L5.01725 10.5532L11.8761 9.29495L11.6054 7.81957ZM3.13717 7.49642L4.63158 7.62577L5.10583 2.14652L3.61142 2.01717L2.117 1.88782L1.64275 7.36707L3.13717 7.49642ZM11.3925 4.58675L12.8705 4.331C12.8603 4.27197 12.8716 4.30651 12.8681 4.39611C12.8663 4.44216 12.8591 4.54702 12.8199 4.68158C12.7827 4.80958 12.6908 5.05277 12.4618 5.28082C12.2021 5.53947 11.8565 5.68693 11.4992 5.70143C11.1852 5.71419 10.9498 5.62186 10.8326 5.56535C10.7085 5.50554 10.6252 5.44155 10.5859 5.40931C10.5426 5.37373 10.5154 5.34561 10.5047 5.33417C10.4795 5.30723 10.5172 5.34477 10.599 5.486C10.671 5.61021 10.7509 5.76937 10.8236 5.94351C10.8967 6.1185 10.9541 6.28837 10.9902 6.43502C11.0079 6.5073 11.0186 6.5662 11.0243 6.61125C11.0301 6.65744 11.0293 6.67779 11.0294 6.67584C11.0294 6.6753 11.031 6.63164 11.0538 6.56022C11.0776 6.48595 11.1279 6.37175 11.2295 6.25394C11.4725 5.97226 11.771 5.92584 11.8728 5.92584V7.42584V8.92584C12.432 8.92584 13.0492 8.73729 13.501 8.21356C13.9106 7.73881 14.0098 7.18608 14.0265 6.80792C14.0588 6.07366 13.8107 5.31124 13.5919 4.78721C13.3735 4.26437 13.05 3.66355 12.6953 3.28445C12.6109 3.19422 12.4198 3.00007 12.135 2.86281C11.9843 2.79021 11.7186 2.69005 11.3775 2.7039C10.9933 2.71951 10.6241 2.87699 10.3447 3.15524C9.89231 3.60584 9.87493 4.16365 9.87042 4.27784C9.86211 4.48859 9.88771 4.6879 9.91446 4.84251L11.3925 4.58675ZM7.72625 0.729172V2.22917C9.26907 2.22917 10.5363 3.3003 10.7772 4.69311L12.2552 4.43742L13.7333 4.18173C13.2299 1.27187 10.6471 -0.770828 7.72625 -0.770828V0.729172ZM7.73208 11.025L8.6269 9.82113L5.78431 7.7083L4.8895 8.91217L3.99469 10.116L6.83727 12.2289L7.73208 11.025ZM8.20867 8.52425L6.72843 8.76694L7.11518 11.1259L8.59542 10.8833L10.0757 10.6406L9.6889 8.28157L8.20867 8.52425ZM4.193 8.02317L3.21382 9.15949L4.05324 9.88282L5.03242 8.7465L6.01159 7.61019L5.17218 6.88685L4.193 8.02317ZM4.46075 9.40975L5.43993 8.27344L4.60051 7.5501L3.62133 8.68642L2.64216 9.82274L3.48157 10.5461L4.46075 9.40975ZM7.777 12.5L8.27437 11.0849L7.33404 10.7544L6.83667 12.1695L6.33929 13.5846L7.27963 13.9151L7.777 12.5ZM5.98967 12.3888L7.44151 12.0118L7.16385 10.9426L5.712 11.3196L4.26015 11.6966L4.53782 12.7659L5.98967 12.3888ZM7.5 12L6.13427 11.3797L5.97435 11.7318L7.34008 12.3521L8.70581 12.9724L8.86573 12.6203L7.5 12ZM7.60783 13.1851L7.14532 11.7582L7.06074 11.7856L7.52325 13.2125L7.98576 14.6394L8.07034 14.612L7.60783 13.1851ZM7.86865 11.0026L6.54562 11.7094C6.46328 11.5553 6.43643 11.4229 6.42679 11.3524C6.41713 11.2817 6.42015 11.2384 6.42018 11.2379C6.42034 11.2353 6.41948 11.2498 6.41316 11.2891C6.40691 11.3279 6.39791 11.3755 6.38465 11.4409C6.36356 11.5449 6.317 11.7581 6.29038 11.9494C6.27588 12.0536 6.26192 12.1849 6.26066 12.3291C6.25942 12.4699 6.26965 12.6627 6.3249 12.876L7.777 12.5L9.2291 12.124C9.28236 12.3296 9.24881 12.4559 9.26175 12.3629C9.27167 12.2916 9.28819 12.2178 9.32487 12.0368C9.35336 11.8962 9.40017 11.6614 9.4148 11.4175C9.42772 11.2021 9.43463 10.7505 9.19167 10.2958L7.86865 11.0026ZM5.712 11.3196L7.16309 10.9397C7.05318 10.5199 6.89472 10.1144 6.6909 9.73128L5.36667 10.4358L4.04243 11.1404C4.13674 11.3176 4.21006 11.5053 4.26091 11.6995L5.712 11.3196ZM7.34008 12.3521L7.77958 13.7863C8.1028 13.6872 8.39597 13.5086 8.63221 13.2668L7.55931 12.2185L6.48641 11.1702C6.60116 11.0528 6.74358 10.966 6.90059 10.9179L7.34008 12.3521ZM7.55931 12.2185L8.63221 13.2668C8.87088 13.0225 9.04116 12.7238 9.13174 12.4018L7.68775 11.9957L6.24376 11.5896C6.28727 11.4349 6.36923 11.2902 6.48641 11.1702L7.55931 12.2185ZM8.53475 12.2156L7.0847 11.8317C7.08953 11.8135 7.0989 11.7968 7.11194 11.7831L8.19614 12.8197L9.28034 13.8563C9.61756 13.5036 9.85992 13.0712 9.9848 12.5995L8.53475 12.2156ZM8.19614 12.8197L7.11194 11.7831C7.12497 11.7695 7.14125 11.7594 7.15926 11.7537L7.60783 13.1851L8.05641 14.6164C8.52205 14.4705 8.94313 14.209 9.28034 13.8563L8.19614 12.8197ZM6.83667 12.1695L5.3892 12.563C5.4212 12.6807 5.4874 12.8687 5.63149 13.0638C5.7869 13.2742 6.02617 13.4811 6.35457 13.5934C6.67278 13.7023 6.96181 13.6839 7.16474 13.6393C7.35989 13.5964 7.50616 13.5235 7.59262 13.4738C7.68333 13.4217 7.75236 13.3696 7.79719 13.333C7.84381 13.295 7.88093 13.2602 7.90753 13.234C7.95914 13.183 7.99764 13.1379 8.0195 13.1114C8.06264 13.0592 8.09619 13.0121 8.10957 12.9932C8.12423 12.9725 8.14169 12.9471 8.14516 12.9421C8.15315 12.9306 8.15174 12.9328 8.14674 12.9396C8.14411 12.9432 8.12066 12.9753 8.08281 13.0177C8.06318 13.0397 8.02834 13.0772 7.98023 13.1206C7.93732 13.1593 7.84873 13.2349 7.72003 13.3072C7.60557 13.3715 7.33708 13.5033 6.96669 13.4966C6.76847 13.4931 6.55368 13.4494 6.34409 13.3481C6.13583 13.2474 5.97469 13.1101 5.85624 12.9705L7 12L8.14376 11.0295C8.02355 10.8879 7.86046 10.749 7.65007 10.6473C7.43836 10.5449 7.22127 10.5007 7.02059 10.4971C6.64528 10.4904 6.37123 10.624 6.25067 10.6917C6.11586 10.7674 6.02062 10.8481 5.97063 10.8932C5.91542 10.943 5.87305 10.9883 5.84555 11.019C5.79196 11.079 5.75141 11.1331 5.73112 11.1606C5.70848 11.1914 5.68887 11.2196 5.67892 11.234C5.66854 11.249 5.67348 11.2419 5.66591 11.2528C5.66272 11.2574 5.66192 11.2585 5.66229 11.258C5.66257 11.2576 5.66621 11.2525 5.67218 11.2445C5.67768 11.2371 5.68967 11.2213 5.70659 11.2008C5.72163 11.1826 5.75378 11.1446 5.79962 11.0993C5.83384 11.0655 5.93788 10.9646 6.09901 10.8721C6.1832 10.8237 6.32737 10.7517 6.52061 10.7092C6.72162 10.665 7.00891 10.6466 7.32559 10.7549C7.65244 10.8667 7.89037 11.0726 8.04463 11.2815C8.18758 11.475 8.25284 11.6609 8.28414 11.776L6.83667 12.1695ZM7 12L5.85624 12.9705C5.98927 13.1273 6.25256 13.3692 6.66992 13.4635C7.11399 13.5639 7.49699 13.4451 7.74687 13.302C7.97189 13.1731 8.10957 13.0167 8.17421 12.9358C8.24616 12.8457 8.29349 12.7651 8.3204 12.7157C8.40836 12.5542 8.44662 12.409 8.45034 12.3959C8.47315 12.3153 8.48688 12.242 8.49191 12.2151C8.5056 12.1419 8.51895 12.0549 8.53035 11.9772C8.55412 11.8152 8.58302 11.599 8.60994 11.3999C8.63803 11.1921 8.66419 11.001 8.68527 10.8644C8.69036 10.8314 8.69468 10.8047 8.69822 10.784C8.70198 10.7619 8.70376 10.7531 8.7036 10.7539C8.70348 10.7545 8.70186 10.7625 8.6987 10.7755C8.69619 10.7859 8.68874 10.8162 8.67578 10.8569C8.67058 10.8733 8.63263 10.9981 8.54855 11.1429C8.51475 11.2011 8.396 11.4026 8.16136 11.581C8.03196 11.6794 7.82136 11.8058 7.53349 11.8603C7.2244 11.9188 6.90955 11.8778 6.63156 11.7506L7.2555 10.3866L7.87944 9.0225C7.60083 8.89506 7.28534 8.85399 6.9756 8.91262C6.68708 8.96722 6.4758 9.09395 6.34571 9.19285C6.10969 9.37229 5.98948 9.57569 5.95416 9.63652C5.86705 9.78655 5.82579 9.91969 5.81702 9.94723C5.78834 10.0374 5.7715 10.1185 5.76497 10.1502C5.7481 10.2323 5.73278 10.3264 5.72035 10.407C5.69421 10.5764 5.66427 10.7961 5.63697 10.998C5.60851 11.2087 5.58273 11.4013 5.56215 11.5416C5.55137 11.615 5.54513 11.6525 5.543 11.6638C5.54012 11.6792 5.54689 11.6383 5.56384 11.5785C5.56462 11.5757 5.60022 11.4379 5.68581 11.2808C5.71212 11.2325 5.75889 11.1527 5.83027 11.0634C5.89437 10.9831 6.03151 10.8272 6.256 10.6987C6.50537 10.5559 6.88787 10.4371 7.33146 10.5374C7.74834 10.6316 8.01117 10.8733 8.14376 11.0295L7 12ZM6.62025 13.1501L7.2644 11.7954C7.30747 11.8159 7.34555 11.8456 7.37597 11.8823L6.22081 12.8392L5.06566 13.796C5.31392 14.0957 5.62464 14.3376 5.9761 14.5047L6.62025 13.1501ZM6.22081 12.8392L7.37597 11.8823C7.40639 11.919 7.42843 11.9619 7.44053 12.0081L5.98967 12.3888L4.5388 12.7696C4.63759 13.146 4.8174 13.4963 5.06566 13.796L6.22081 12.8392ZM7.2555 10.3866L6.61261 11.7418C6.20912 11.5504 6.0215 11.2406 5.97844 11.1692C5.91033 11.0562 5.87419 10.9609 5.86 10.9216C5.82981 10.8382 5.81795 10.7782 5.81785 10.7778C5.81511 10.7648 5.81907 10.7823 5.82796 10.851C5.84466 10.9799 5.86234 11.1569 5.88369 11.3682C5.90315 11.561 5.92652 11.7912 5.95201 11.9729C5.9635 12.0548 5.98277 12.1824 6.01408 12.3066C6.02536 12.3513 6.06313 12.5017 6.1478 12.6678C6.18432 12.7395 6.29397 12.9465 6.51616 13.1369C6.78192 13.3646 7.31079 13.633 7.95211 13.4302L7.5 12L7.04789 10.5698C7.32521 10.4821 7.62093 10.4777 7.8988 10.5551C8.16008 10.628 8.34896 10.7567 8.46806 10.8587C8.68499 11.0446 8.78939 11.2442 8.82067 11.3056C8.89487 11.4511 8.92219 11.5698 8.92305 11.5732C8.93351 11.6147 8.93205 11.6212 8.92291 11.5561C8.90713 11.4436 8.88963 11.2759 8.8685 11.0668C8.84924 10.8761 8.82661 10.6471 8.80314 10.4658C8.79195 10.3794 8.77587 10.2657 8.75312 10.1579C8.74302 10.1101 8.72115 10.0118 8.68097 9.90082C8.66179 9.84778 8.62065 9.74129 8.54754 9.62005C8.49949 9.54037 8.30687 9.2251 7.89839 9.03133L7.2555 10.3866ZM7.52325 13.2125L7.06651 11.7837C7.13339 11.7624 7.20592 11.7674 7.26922 11.7977L6.62025 13.1501L5.97128 14.5024C6.59857 14.8035 7.31725 14.8531 7.97999 14.6413L7.52325 13.2125ZM8.2565 7.59267V9.09267H11.2782V7.59267V6.09267H8.2565V7.59267ZM11.2782 8.46767V6.96767H8.2565V8.46767V9.96767H11.2782V8.46767ZM2.75275 1.51317L1.25833 1.38389L0.691331 7.93823L2.18575 8.0675L3.68017 8.19678L4.24717 1.64245L2.75275 1.51317ZM2.18575 8.0675L2.31479 6.57307L1.44329 6.49782L1.31425 7.99225L1.18521 9.48669L2.05671 9.56194L2.18575 8.0675ZM1.31425 7.99225L2.80869 8.12127L3.37452 1.56694L1.88008 1.43792L0.385642 1.30891L-0.180191 7.86324L1.31425 7.99225ZM2.1875 1.45076H0.6875V8.03017H2.1875H3.6875V1.45076H2.1875ZM2.1875 8.03017V6.53017H1.3125V8.03017V9.53017H2.1875V8.03017ZM1.3125 8.03017H2.8125V1.45076H1.3125H-0.1875V8.03017H1.3125ZM1.88008 1.43792L0.385341 1.31244C0.363902 1.56781 0.404647 1.79812 0.469751 1.98772L1.88844 1.50058L3.30714 1.01344C3.35842 1.1628 3.3927 1.35043 3.37483 1.56341L1.88008 1.43792ZM1.88844 1.50058L0.469751 1.98772C0.54421 2.20457 0.662956 2.40356 0.818446 2.57206L1.9208 1.5548L3.02315 0.53754C3.14979 0.674768 3.2465 0.836832 3.30714 1.01344L1.88844 1.50058ZM1.9208 1.5548L0.818446 2.57206C0.973934 2.74055 1.16277 2.87487 1.37295 2.96647L1.97225 1.5914L2.57155 0.216318C2.74273 0.290923 2.89652 0.400314 3.02315 0.53754L1.9208 1.5548ZM1.97225 1.5914L1.37295 2.96647C1.58313 3.05808 1.81007 3.10497 2.03934 3.10416L2.03408 1.60417L2.02883 0.104181C2.21555 0.103526 2.40037 0.141714 2.57155 0.216318L1.97225 1.5914ZM2.03408 0.729172V2.22917C1.57492 2.22917 1.21951 1.83591 1.25825 1.38484L2.75275 1.51317L4.24725 1.64151C4.35832 0.348095 3.34025 -0.770828 2.03408 -0.770828V0.729172ZM8.59542 10.8833L7.1153 11.1267C7.15434 11.364 7.14331 11.6063 7.08304 11.8381L8.53475 12.2156L9.98646 12.5931C10.1525 11.9545 10.1823 11.2892 10.0755 10.6398L8.59542 10.8833ZM7.68775 11.9957L9.14025 12.3702C9.27322 11.8544 9.29955 11.3134 9.21225 10.7819L7.73208 11.025L6.25192 11.2681C6.27078 11.383 6.26561 11.5034 6.23525 11.6212L7.68775 11.9957ZM11.7938 7.9179L11.7911 6.4179C12.0916 6.41735 12.3126 6.51028 12.3534 6.52683C12.4327 6.559 12.4913 6.59099 12.5181 6.60602C12.5739 6.63741 12.612 6.66413 12.6194 6.66924C12.6398 6.6835 12.6446 6.68807 12.6231 6.67107C12.5856 6.64137 12.52 6.58735 12.4224 6.50462C12.2307 6.34224 11.9575 6.10497 11.6246 5.81299C10.9601 5.23031 10.0853 4.45412 9.2047 3.67457C8.32753 2.89809 7.44453 2.11825 6.77372 1.53752C6.43997 1.24858 6.1487 1.00021 5.93346 0.823957C5.8293 0.738664 5.72379 0.654468 5.63289 0.588113C5.5939 0.559649 5.51917 0.505999 5.43124 0.45533C5.39672 0.435438 5.29071 0.374807 5.14724 0.325885C5.08 0.302954 4.92288 0.253569 4.71601 0.245439C4.52688 0.238007 4.05497 0.257777 3.63806 0.641277L4.65356 1.74525L5.66907 2.84921C5.2537 3.2313 4.78415 3.25043 4.59821 3.24313C4.39452 3.23512 4.24142 3.18662 4.17898 3.16533C4.04514 3.11969 3.95196 3.06535 3.9334 3.05465C3.87739 3.02238 3.84706 2.99876 3.8641 3.0112C3.88526 3.02665 3.93839 3.06774 4.0328 3.14505C4.21471 3.29401 4.48033 3.52012 4.81015 3.80564C5.46647 4.37383 6.33732 5.14287 7.21621 5.92088C8.09165 6.69584 8.97515 7.4798 9.64663 8.06861C9.98164 8.36238 10.2708 8.61368 10.4829 8.79343C10.5872 8.88177 10.6839 8.9622 10.7622 9.02418C10.7987 9.05302 10.8499 9.09273 10.9043 9.13067C10.9287 9.14762 10.9807 9.18332 11.0472 9.22072C11.0793 9.23876 11.1425 9.27302 11.2254 9.30669C11.27 9.32477 11.4939 9.41845 11.7966 9.4179L11.7938 7.9179ZM4.65356 1.74525L3.81729 2.99049C6.16651 4.56818 7.83849 5.99767 8.90898 7.03181C9.44515 7.54978 9.82532 7.96362 10.0615 8.24211C10.1812 8.38335 10.2542 8.47833 10.289 8.52693C10.3087 8.55437 10.3021 8.54752 10.2838 8.51584C10.2761 8.50256 10.2478 8.45331 10.2174 8.3808C10.2021 8.34454 10.1757 8.27744 10.1527 8.18906C10.1344 8.11865 10.0902 7.93297 10.1109 7.69184L11.6054 7.81957L13.1 7.9473C13.1347 7.54023 12.9871 7.22812 12.9831 7.21853C12.945 7.12784 12.9048 7.05554 12.8811 7.01448C12.8307 6.92723 12.7751 6.84583 12.7284 6.78071C12.6307 6.6442 12.5024 6.48202 12.3496 6.30183C12.0406 5.93745 11.5908 5.4513 10.9934 4.87418C9.79669 3.71815 7.98706 2.17707 5.48984 0.499999L4.65356 1.74525ZM3.61142 2.01717L5.10585 2.14631C5.10389 2.16891 5.09354 2.18995 5.07683 2.20529L4.06239 1.10034L3.04796 -0.00460535C2.51182 0.487616 2.17965 1.16291 2.11699 1.88803L3.61142 2.01717ZM4.06239 1.10034L5.07683 2.20529C5.06013 2.22063 5.03828 2.22915 5.01559 2.22917L5.01433 0.729172L5.01307 -0.770828C4.28525 -0.770216 3.58409 -0.496826 3.04796 -0.00460535L4.06239 1.10034ZM5.03242 8.7465L4.05321 9.88279C4.21935 10.026 4.50041 10.2256 4.73506 10.3921C5.00513 10.5838 5.30764 10.7962 5.60933 11.0163C5.91281 11.2376 6.18714 11.4461 6.39404 11.6209C6.4978 11.7085 6.56678 11.7728 6.60705 11.8141C6.66589 11.8746 6.61173 11.833 6.54589 11.7099L7.86865 11.0026L9.19141 10.2953C9.05483 10.0398 8.87139 9.83932 8.75658 9.72139C8.62321 9.5844 8.47419 9.45094 8.32978 9.32897C8.04034 9.08451 7.69767 8.82621 7.37704 8.59238C7.05462 8.35725 6.72591 8.12628 6.47121 7.94553C6.3406 7.85285 6.23142 7.77479 6.14469 7.71107C6.10164 7.67944 6.06807 7.65424 6.04282 7.63475C6.01561 7.61376 6.00757 7.60672 6.01163 7.61022L5.03242 8.7465ZM5.36667 10.4358L6.69031 9.73017C6.34983 9.09152 5.84554 8.62217 5.43865 8.27234L4.46075 9.40975L3.48285 10.5472C3.84129 10.8553 3.97984 11.023 4.04302 11.1415L5.36667 10.4358ZM12.6665 6.81742L11.1886 7.07384C11.1863 7.06081 11.1869 7.04745 11.1904 7.0347L12.6385 7.42584L14.0866 7.81699C14.1972 7.40755 14.2169 6.97888 14.1444 6.56101L12.6665 6.81742ZM12.6385 7.42584L11.1904 7.0347C11.1938 7.02194 11.2 7.01009 11.2085 6.99997L12.3564 7.96562L13.5042 8.93128C13.7772 8.60673 13.976 8.22642 14.0866 7.81699L12.6385 7.42584ZM12.3564 7.96562L11.2085 6.99997C11.217 6.98986 11.2277 6.98173 11.2396 6.97615L11.8728 8.33596L12.506 9.69577C12.8905 9.51674 13.2312 9.25582 13.5042 8.93128L12.3564 7.96562ZM11.8728 8.33596L11.2396 6.97615C11.2516 6.97057 11.2647 6.96767 11.2779 6.96767L11.2782 8.46767L11.2784 9.96767C11.7025 9.96759 12.1215 9.87479 12.506 9.69577L11.8728 8.33596ZM11.2782 7.59267L11.2789 9.09267C11.5755 9.09253 11.8684 9.02754 12.1373 8.90225L11.5036 7.54266L10.87 6.18306C10.9976 6.12359 11.1367 6.09274 11.2774 6.09267L11.2782 7.59267ZM11.5036 7.54266L12.1373 8.90225C12.62 8.67726 12.849 8.27274 12.9384 7.98252C13.0175 7.72566 13.0076 7.51123 13.0002 7.41841C12.9847 7.22552 12.9345 7.07985 12.9215 7.04197C12.8852 6.93623 12.8433 6.85193 12.829 6.82329C12.7908 6.74666 12.7459 6.66773 12.71 6.6062C12.6326 6.4735 12.5256 6.29966 12.4066 6.10954C12.1659 5.72507 11.8409 5.21849 11.522 4.72136C11.1998 4.21921 10.8835 3.72634 10.6507 3.35511C10.5331 3.16768 10.4447 3.02375 10.3895 2.92984C10.3597 2.87903 10.3523 2.86432 10.3565 2.87269C10.3586 2.87667 10.3638 2.88705 10.3709 2.90225C10.377 2.91557 10.3905 2.94517 10.4057 2.98549C10.4161 3.01273 10.4525 3.10931 10.4761 3.24096C10.4876 3.30523 10.5077 3.43948 10.4954 3.6102C10.4845 3.76099 10.436 4.12287 10.1482 4.46521L9 3.5L7.8518 2.53479C7.56323 2.87806 7.51424 3.24135 7.50321 3.39401C7.49074 3.56661 7.5111 3.7032 7.52312 3.77027C7.54772 3.90753 7.58639 4.01154 7.6002 4.04801C7.63344 4.13576 7.66943 4.20708 7.68473 4.23704C7.7219 4.30984 7.76568 4.38615 7.80265 4.44911C7.88115 4.58277 7.98897 4.75748 8.10928 4.94928C8.35218 5.33649 8.67816 5.84439 8.99699 6.34134C9.31904 6.8433 9.63383 7.33416 9.86378 7.70145C9.98007 7.8872 10.0662 8.02784 10.1186 8.11769C10.1476 8.16744 10.1517 8.1768 10.1441 8.16169C10.1412 8.15569 10.1344 8.14187 10.1257 8.1223C10.1182 8.10555 10.1015 8.06701 10.0836 8.0147C10.0735 7.98526 10.0249 7.84623 10.0098 7.65813C10.0025 7.56772 9.99256 7.35522 10.0712 7.09982C10.1601 6.81106 10.3883 6.40754 10.87 6.18306L11.5036 7.54266ZM9 3.5L10.1482 4.46521C9.80682 4.87131 9.34474 5.002 8.99011 4.99927C8.69229 4.99697 8.47275 4.90606 8.3842 4.86586C8.19896 4.78176 8.07726 4.67881 8.05412 4.6596C8.0097 4.62271 7.97834 4.59197 7.96499 4.57866C7.94927 4.56298 7.93835 4.5512 7.93358 4.54599C7.92129 4.53258 7.92772 4.53873 7.96321 4.58301C8.02695 4.66253 8.12575 4.79131 8.25548 4.96402C8.51183 5.30529 8.85213 5.76891 9.19814 6.24114C9.54084 6.70884 9.88931 7.18523 10.1527 7.53892C10.2831 7.71412 10.401 7.87039 10.49 7.98386C10.5311 8.03622 10.5833 8.10154 10.6341 8.15918C10.6501 8.1774 10.7119 8.24801 10.795 8.32092C10.8086 8.33284 10.9603 8.47262 11.1926 8.57367C11.2857 8.61414 11.6574 8.77135 12.1364 8.65862C12.796 8.50342 13.1343 7.98781 13.2421 7.58799L11.7938 7.19746L10.3455 6.80692C10.453 6.40828 10.7907 5.89337 11.4492 5.73839C11.9273 5.62589 12.2977 5.78286 12.3892 5.82263C12.6183 5.92228 12.7655 6.0588 12.7733 6.06568C12.8166 6.10365 12.8468 6.13493 12.858 6.14662C12.872 6.16127 12.8816 6.17202 12.8852 6.17616C12.8938 6.18595 12.8854 6.17671 12.8499 6.1316C12.786 6.05012 12.6874 5.91979 12.5589 5.74722C12.3043 5.40537 11.965 4.94152 11.6181 4.46801C11.2744 3.99902 10.9232 3.52044 10.6542 3.16228C10.5212 2.98527 10.3989 2.82502 10.304 2.70667C10.2602 2.65201 10.203 2.58201 10.1453 2.51905C10.1243 2.49623 10.059 2.42497 9.97061 2.35155C9.94085 2.32684 9.81375 2.22017 9.62437 2.13419C9.53376 2.09306 9.31246 2.00166 9.01321 1.99936C8.65716 1.99661 8.19396 2.12776 7.8518 2.53479L9 3.5ZM11.7938 7.19746L13.2421 7.58799C13.3193 7.30164 13.333 7.00186 13.2821 6.70966L11.8043 6.96675L10.3265 7.22385C10.3024 7.08515 10.3089 6.94285 10.3455 6.80692L11.7938 7.19746ZM2.03408 1.60417V3.10417C2.4726 3.10417 2.89315 2.92997 3.20323 2.6199L2.14257 1.55924L1.08191 0.498577C1.33444 0.246043 1.67695 0.104172 2.03408 0.104172V1.60417ZM2.14257 1.55924L3.20323 2.6199C3.5133 2.30982 3.6875 1.88927 3.6875 1.45076H2.1875H0.6875C0.6875 1.09362 0.829371 0.751111 1.08191 0.498577L2.14257 1.55924ZM1.3125 1.45076H2.8125C2.8125 1.87977 2.46509 2.22917 2.03408 2.22917V0.729172V-0.770828C0.805077 -0.770828 -0.1875 0.226074 -0.1875 1.45076H1.3125ZM4.8895 8.91217L6.3696 8.66865C6.47234 9.29305 6.1624 9.72787 6.02394 9.88627C5.87899 10.0521 5.73337 10.1419 5.68383 10.1716C5.61872 10.2106 5.5668 10.234 5.54371 10.2441C5.51735 10.2556 5.49905 10.2622 5.49299 10.2644C5.48346 10.2678 5.51702 10.2562 5.62206 10.2303C5.8176 10.182 6.09467 10.1238 6.41134 10.058C6.71003 9.99605 7.04658 9.92683 7.30851 9.86453C7.43499 9.83445 7.58276 9.79703 7.71395 9.75426C7.77301 9.73501 7.88204 9.69779 7.99926 9.63965C8.05498 9.61201 8.1657 9.55392 8.28647 9.45846C8.36736 9.39452 8.6813 9.14153 8.81213 8.66952L7.36663 8.26885L5.92114 7.86818C6.04973 7.40423 6.3567 7.1598 6.42617 7.10489C6.53552 7.01846 6.63038 6.96986 6.6661 6.95214C6.71069 6.93002 6.74437 6.91669 6.75844 6.91128C6.77442 6.90513 6.78385 6.90208 6.78411 6.902C6.78493 6.90173 6.78138 6.9029 6.77246 6.90549C6.76376 6.90802 6.75184 6.91135 6.7363 6.9155C6.70478 6.9239 6.66438 6.93405 6.61435 6.94594C6.40506 6.99572 6.12049 7.05448 5.80165 7.12065C5.50079 7.1831 5.16393 7.25327 4.90263 7.31781C4.77926 7.34829 4.62367 7.38925 4.48347 7.43935C4.42533 7.46013 4.28857 7.51036 4.14286 7.59759C4.07646 7.63734 3.91824 7.73684 3.76524 7.91186C3.61873 8.07946 3.30531 8.52303 3.4094 9.1557L4.8895 8.91217ZM7.36663 8.26885L8.81213 8.66952C8.78979 8.75012 8.75018 8.82489 8.69606 8.88865L7.55253 7.9179L6.40901 6.94715C6.18151 7.21514 6.01504 7.52942 5.92114 7.86818L7.36663 8.26885ZM7.55253 7.9179L8.69606 8.88865C8.64193 8.95241 8.57458 9.00363 8.49867 9.03876L7.86865 7.67749L7.23862 6.31622C6.9196 6.46387 6.63651 6.67916 6.40901 6.94715L7.55253 7.9179ZM7.86865 7.67749L8.49867 9.03876C8.41882 9.07572 8.33573 9.09267 8.2565 9.09267L8.2565 7.59267L8.2565 6.09267C7.90937 6.09267 7.5616 6.16673 7.23862 6.31622L7.86865 7.67749ZM8.2565 8.46767V6.96767C7.31021 6.96767 6.58132 7.81119 6.72611 8.75234L8.20867 8.52425L9.69122 8.29617C9.82668 9.17665 9.14445 9.96767 8.2565 9.96767V8.46767ZM4.74658 9.07784L3.25188 8.95193C3.25792 8.88025 3.27199 8.77435 3.30892 8.6506C3.34523 8.52895 3.4151 8.35133 3.55441 8.16925C3.70218 7.9761 3.91722 7.7938 4.20117 7.68336C4.47912 7.57525 4.74067 7.56788 4.94107 7.59446C5.13388 7.62003 5.28389 7.67814 5.3794 7.72293C5.47771 7.76903 5.55356 7.81772 5.60429 7.85343C5.70242 7.92248 5.77048 7.98842 5.80319 8.02146C5.87029 8.08924 5.9139 8.14709 5.92631 8.16362C5.94432 8.1876 5.95634 8.20543 5.96077 8.21207C5.97195 8.22882 5.96542 8.22015 5.93294 8.16315C5.8762 8.06358 5.79475 7.91302 5.70628 7.74666C5.61936 7.58322 5.53405 7.42036 5.46907 7.2968C5.43797 7.23766 5.40894 7.18257 5.38828 7.14416C5.38136 7.13128 5.36317 7.09739 5.34421 7.06496C5.33919 7.05636 5.32615 7.03414 5.30872 7.00702C5.30054 6.9943 5.28276 6.96698 5.25851 6.93369C5.24627 6.91691 5.22578 6.88947 5.19871 6.85696C5.17703 6.83092 5.12289 6.76718 5.04341 6.69639C5.00251 6.66125 4.89794 6.58209 4.83322 6.53983C4.73212 6.48274 4.45504 6.37339 4.27712 6.3344C4.00239 6.31705 3.40934 6.45806 3.12175 6.63469C2.91227 6.83379 2.65906 7.24411 2.5966 7.42851C2.56953 7.54937 2.54687 7.75369 2.54567 7.83553C2.54746 7.89219 2.55559 7.98977 2.56092 8.03072C2.57296 8.11429 2.5896 8.17881 2.59762 8.20846C2.61461 8.27129 2.63209 8.31923 2.63809 8.33555C2.64631 8.35793 2.65351 8.37588 2.65787 8.38654L4.04659 7.81957L5.43531 7.2526C5.43916 7.26203 5.44595 7.27894 5.45386 7.30045C5.45954 7.31592 5.4768 7.36317 5.49365 7.42549C5.50159 7.45489 5.51819 7.51921 5.53021 7.60261C5.5346 7.63303 5.57832 7.8915 5.49452 8.20445C5.43208 8.38882 5.17888 8.79911 4.96942 8.99819C4.68185 9.17481 4.08883 9.31581 3.81413 9.29846C3.63624 9.25949 3.3592 9.15015 3.25815 9.09309C3.19347 9.05085 3.08895 8.97172 3.0481 8.93664C2.91759 8.8204 2.8369 8.70452 2.83391 8.70042C2.81004 8.66767 2.79274 8.64105 2.78512 8.62919C2.7688 8.60382 2.75721 8.58399 2.75397 8.57843C2.74212 8.55815 2.73622 8.54667 2.74607 8.56497C2.75895 8.58893 2.78135 8.63134 2.81381 8.69308C2.87597 8.81129 2.96633 8.98375 3.05752 9.15524C3.14717 9.32381 3.24628 9.50781 3.32647 9.64851C3.36244 9.71165 3.41347 9.79954 3.46553 9.87754C3.47463 9.89117 3.55295 10.0126 3.67121 10.1321C3.70676 10.168 3.77736 10.2362 3.87771 10.3068C3.95076 10.3582 4.18967 10.5211 4.54665 10.5684C4.74784 10.5951 5.0101 10.5877 5.28867 10.4793C5.57324 10.3686 5.78882 10.1859 5.93705 9.99216C6.19758 9.65164 6.2327 9.30568 6.24129 9.20375L4.74658 9.07784ZM4.04659 7.81957L2.65787 8.38654C2.77946 8.68437 2.96988 8.94916 3.21351 9.15922L4.193 8.02317L5.17249 6.88713C5.28773 6.98648 5.37779 7.11172 5.43531 7.2526L4.04659 7.81957ZM3.62133 8.68642L4.60133 7.55081C4.61191 7.55994 4.62017 7.57145 4.62544 7.58439L3.23603 8.14969L1.84663 8.71499C2.02023 9.14167 2.2926 9.52108 2.64134 9.82203L3.62133 8.68642ZM3.23603 8.14969L4.62544 7.58439C4.6307 7.59734 4.63282 7.61135 4.63162 7.62527L3.13717 7.49642L1.64271 7.36757C1.60314 7.82652 1.67303 8.2883 1.84663 8.71499L3.23603 8.14969Z" fill="#FF383C" mask="url(#path-1-inside-1_385_98)"/>
</svg>
